<svg width="20" height="20" viewBox="0 0 20 20" fill="none" xmlns="http://www.w3.org/2000/svg">
<g opacity="0.6" clip-path="url(#clip0_38_118)">
<g clip-path="url(#clip1_38_118)">
<path d="M10 9.99999C10 9.11698 10.3512 8.27014 10.9763 7.64501C11.6014 7.01989 12.4482 6.66873 13.3313 6.66873H16.6625V9.99999C16.6625 10.883 16.3113 11.7299 15.6862 12.355C15.0611 12.9801 14.2143 13.3313 13.3313 13.3313H10V9.99999V9.99999" fill="#1ABCFE"/>
<path d="M3.33337 16.6646C3.33337 15.7816 3.68456 14.9348 4.30969 14.3097C4.93481 13.6845 5.78163 13.3333 6.66464 13.3333H10V16.6646C10 17.5476 9.64885 18.3944 9.02373 19.0196C8.3986 19.6447 7.5518 19.9959 6.66464 19.9959C5.78163 19.9959 4.93481 19.6447 4.30969 19.0196C3.68456 18.3944 3.33337 17.5476 3.33337 16.6646V16.6646" fill="#0AC17E"/>
<path d="M3.33337 9.99999C3.33337 9.11698 3.68456 8.27014 4.30969 7.64501C4.93481 7.01989 5.78163 6.66873 6.66464 6.66873H10V13.3333H6.66464C5.78163 13.3333 4.93481 12.9821 4.30969 12.357C3.68456 11.7319 3.33337 10.8851 3.33337 9.99999V9.99999" fill="#A259FF"/>
<path d="M3.33337 3.33332C3.33337 2.45031 3.68456 1.60348 4.30969 0.978357C4.93481 0.353234 5.78163 0.00204468 6.66464 0.00204468H10V6.66666H6.66464C5.78163 6.66666 4.93481 6.31546 4.30969 5.69034C3.68456 5.06522 3.33337 4.21841 3.33337 3.33332V3.33332V3.33332" fill="#F24E1E"/>
<path d="M10 0.00204468H13.3313C14.2143 0.00204468 15.0611 0.353234 15.6862 0.978357C16.3113 1.60348 16.6625 2.45031 16.6625 3.33332C16.6625 4.21634 16.3113 5.06318 15.6862 5.6883C15.0611 6.31343 14.2143 6.66459 13.3313 6.66459H10V0.00204468V0.00204468" fill="#FF7262"/>
</g>
</g>
<defs>
<clipPath id="clip0_38_118">
<rect width="20" height="20" fill="white"/>
</clipPath>
<clipPath id="clip1_38_118">
<rect width="20" height="20" fill="white"/>
</clipPath>
</defs>
</svg>
