<svg width="12" height="15" viewBox="0 0 12 15" fill="none" xmlns="http://www.w3.org/2000/svg">
<path d="M5.69938 14.625C6.50798 14.625 7.2111 13.957 7.2111 13.1484H4.18766C4.18766 13.957 4.85563 14.625 5.69938 14.625V14.625M10.1994 10.125V6.39844C10.1994 4.07812 8.96891 2.14453 6.82438 1.65234V1.125C6.82438 0.527344 6.33219 0 5.69938 0C5.06657 0 4.57438 0.527344 4.57438 1.125V1.65234C2.42985 2.14453 1.19938 4.07812 1.19938 6.39844V10.125L0.215006 11.1094C-0.242025 11.5664 0.0743812 12.375 0.74235 12.375H10.6213C11.2892 12.375 11.6408 11.5664 11.1838 11.1094L10.1994 10.125V10.125" fill="#9CA3AF"/>
</svg>
