<svg width="10" height="12" viewBox="0 0 10 12" fill="none" xmlns="http://www.w3.org/2000/svg">
<path d="M6.17969 0.328125C5.96094 0.109375 5.66016 0 5.35938 0H1.17578C0.546875 0 0 0.519531 0 1.14844V10.5C0 11.1289 0.519531 11.6484 1.17578 11.6484H8.17578C8.80469 11.6484 9.35156 11.1289 9.35156 10.5V3.96484C9.35156 3.66406 9.21484 3.36328 8.99609 3.14453L6.17969 0.328125ZM6.42578 9.32422H2.92578C2.59766 9.32422 2.35156 9.05078 2.35156 8.75C2.35156 8.42188 2.59766 8.14844 2.92578 8.14844H6.42578C6.75391 8.14844 7 8.42188 7 8.75C7 9.05078 6.75391 9.32422 6.42578 9.32422ZM6.42578 7H2.92578C2.59766 7 2.35156 6.72656 2.35156 6.39844C2.35156 6.09766 2.59766 5.82422 2.92578 5.82422H6.42578C6.75391 5.82422 7 6.09766 7 6.39844C7 6.72656 6.75391 7 6.42578 7ZM5.25 3.5V0.875L8.47656 4.07422H5.85156C5.52344 4.07422 5.25 3.80078 5.25 3.5Z" fill="#1337EC"/>
</svg>
