<svg width="15" height="9" viewBox="0 0 15 9" fill="none" xmlns="http://www.w3.org/2000/svg">
<path d="M4.7373 7.10156L1.78418 4.18359L4.7373 1.26562C5.01855 0.949219 5.01855 0.492188 4.7373 0.210938C4.4209 -0.0703125 3.96387 -0.0703125 3.68262 0.210938L0.237305 3.65625C-0.0791016 3.9375 -0.0791016 4.42969 0.237305 4.71094L3.68262 8.15625C3.96387 8.4375 4.4209 8.4375 4.7373 8.15625C5.01855 7.875 5.01855 7.41797 4.7373 7.10156ZM9.65918 7.10156L12.6123 4.18359L9.65918 1.26562C9.37793 0.949219 9.37793 0.492188 9.65918 0.210938C9.97559 -0.0703125 10.4326 -0.0703125 10.7139 0.210938L14.1592 3.65625C14.4756 3.9375 14.4756 4.42969 14.1592 4.71094L10.7139 8.15625C10.4326 8.4375 9.97559 8.4375 9.65918 8.15625C9.37793 7.875 9.37793 7.41797 9.65918 7.10156Z" fill="#1337EC"/>
</svg>
