<svg width="11" height="12" viewBox="0 0 11 12" fill="none" xmlns="http://www.w3.org/2000/svg">
<path d="M4.10156 2.81641L2.51562 4.64844H0.875C0.382812 4.64844 0 5.05859 0 5.52344V7.27344C0 7.76562 0.382812 8.14844 0.875 8.14844H2.625C2.70703 8.14844 2.78906 8.14844 2.84375 8.12109L7 10.1992V10.7734C7 11.2656 7.38281 11.6484 7.875 11.6484H9.625C10.1172 11.6484 10.5 11.2656 10.5 10.7734V9.02344C10.5 8.55859 10.1172 8.14844 9.625 8.14844H7.875C7.4375 8.14844 7.08203 8.47656 7 8.88672L3.5 7.13672V5.52344C3.5 5.46875 3.5 5.38672 3.47266 5.33203L5.08594 3.5H6.69922C7.19141 3.5 7.57422 3.08984 7.57422 2.625V0.875C7.57422 0.382812 7.19141 0 6.69922 0H4.94922C4.48438 0 4.07422 0.382812 4.07422 0.875V2.625C4.07422 2.67969 4.10156 2.76172 4.10156 2.81641Z" fill="#FB923C"/>
</svg>
