<svg width="11" height="11" viewBox="0 0 11 11" fill="none" xmlns="http://www.w3.org/2000/svg">
<path d="M10.5 9.32422V1.17578C10.5 0.519531 9.98047 0 9.32422 0H1.17578C0.519531 0 0 0.519531 0 1.17578V9.32422C0 9.98047 0.519531 10.5 1.17578 10.5H9.32422C9.98047 10.5 10.5 9.98047 10.5 9.32422ZM3.44531 6.39844L4.67578 7.875L6.48047 5.55078C6.58984 5.41406 6.83594 5.41406 6.94531 5.55078L8.99609 8.28516C9.13281 8.47656 8.99609 8.75 8.75 8.75H1.75C1.50391 8.75 1.39453 8.47656 1.53125 8.28516L2.98047 6.42578C3.08984 6.26172 3.30859 6.26172 3.44531 6.39844Z" fill="#4ADE80"/>
</svg>
