<svg width="12" height="10" viewBox="0 0 12 10" fill="none" xmlns="http://www.w3.org/2000/svg">
<path d="M1.14844 1.75V2.92578C1.14844 3.25391 0.902344 3.5 0.574219 3.5C0.246094 3.5 0 3.77344 0 4.10156V5.25C0 5.57812 0.246094 5.85156 0.574219 5.85156C0.902344 5.85156 1.14844 6.09766 1.14844 6.42578V7.60156C1.14844 8.55859 1.94141 9.35156 2.89844 9.35156H4.07422C4.40234 9.35156 4.64844 9.07812 4.64844 8.75C4.64844 8.44922 4.40234 8.17578 4.07422 8.17578H2.89844C2.59766 8.17578 2.32422 7.90234 2.32422 7.60156V6.42578C2.32422 5.66016 1.83203 5.00391 1.14844 4.78516V4.56641C1.83203 4.34766 2.32422 3.69141 2.32422 2.92578V1.75C2.32422 1.44922 2.59766 1.17578 2.89844 1.17578H4.07422C4.40234 1.17578 4.64844 0.902344 4.64844 0.601562C4.64844 0.273438 4.40234 0 4.07422 0H2.89844C1.94141 0 1.14844 0.792969 1.14844 1.75ZM11.0742 3.5C10.7461 3.5 10.5 3.25391 10.5 2.92578V1.75C10.5 0.792969 9.70703 0 8.75 0H7.57422C7.24609 0 7 0.273438 7 0.601562C7 0.902344 7.24609 1.17578 7.57422 1.17578H8.75C9.05078 1.17578 9.32422 1.44922 9.32422 1.75V2.92578C9.32422 3.69141 9.81641 4.34766 10.5 4.56641V4.78516C9.81641 5.00391 9.32422 5.66016 9.32422 6.42578V7.60156C9.32422 7.90234 9.05078 8.17578 8.75 8.17578H7.57422C7.24609 8.17578 7 8.44922 7 8.75C7 9.07812 7.24609 9.35156 7.57422 9.35156H8.75C9.70703 9.35156 10.5 8.55859 10.5 7.60156V6.42578C10.5 6.09766 10.7461 5.85156 11.0742 5.85156C11.4023 5.85156 11.6484 5.57812 11.6484 5.25V4.10156C11.6484 3.77344 11.4023 3.5 11.0742 3.5Z" fill="#60A5FA"/>
</svg>
